<svg width="36" height="41" viewBox="0 0 36 41" fill="none" xmlns="http://www.w3.org/2000/svg">
<path d="M34.9961 30.5894C34.9961 30.5894 35.0219 30.5249 35.0219 30.4862V11.7881C35.0219 11.7881 35.0219 11.7623 35.0219 11.7365C35.0219 11.7107 35.0219 11.672 35.0219 11.6462C35.0219 11.6076 35.009 11.5689 34.9961 11.5302C34.9832 11.4915 34.9703 11.4528 34.9574 11.4141C34.9574 11.4012 34.9574 11.3883 34.9445 11.3754L34.9188 11.3496C34.893 11.3239 34.8801 11.2852 34.8543 11.2594C34.8285 11.2207 34.8027 11.1949 34.764 11.1691C34.7382 11.1433 34.7124 11.1304 34.6866 11.1046C34.6866 11.1046 34.6737 11.0917 34.6609 11.0788L18.0131 0.672376C18.0131 0.672376 17.9357 0.646586 17.897 0.63369C17.8454 0.6079 17.781 0.582109 17.7294 0.569214C17.6778 0.569214 17.6262 0.569214 17.5617 0.569214C17.5102 0.569214 17.4586 0.569214 17.3941 0.569214C17.3296 0.569214 17.278 0.6079 17.2265 0.63369C17.1878 0.646586 17.1491 0.659481 17.1104 0.672376L9.65695 5.32756L0.462628 11.066C0.462628 11.066 0.449732 11.0788 0.436837 11.0917C0.411047 11.1175 0.385259 11.1304 0.359469 11.1562C0.320783 11.182 0.294993 11.2207 0.269202 11.2465C0.243412 11.2723 0.217617 11.2981 0.204722 11.3368C0.204722 11.3368 0.178931 11.3496 0.178931 11.3625C0.178931 11.3754 0.178933 11.3883 0.166038 11.4012C0.153143 11.4399 0.140249 11.4786 0.127354 11.5173C0.127354 11.556 0.101562 11.5947 0.101562 11.6333C0.101562 11.6591 0.101562 11.6978 0.101562 11.7236C0.101562 11.7365 0.101562 11.7494 0.101562 11.7752V30.4733C0.101562 30.4733 0.114458 30.5507 0.127354 30.5765C0.127354 30.641 0.140247 30.6925 0.166038 30.7441C0.178933 30.7957 0.217621 30.8473 0.243411 30.886C0.269202 30.9375 0.294992 30.9762 0.333678 31.0149C0.372363 31.0665 0.423945 31.0923 0.475526 31.131C0.501317 31.1568 0.527104 31.1826 0.552895 31.1955L17.1878 40.5316C17.1878 40.5316 17.2136 40.5316 17.2265 40.5316C17.3425 40.5961 17.4715 40.6348 17.6133 40.6348C17.7552 40.6348 17.8841 40.5961 18.0002 40.5316C18.0002 40.5316 18.026 40.5316 18.0389 40.5316L34.6737 31.1955C34.6737 31.1955 34.7253 31.1439 34.7511 31.131C34.8027 31.0923 34.8414 31.0536 34.893 31.0149C34.9317 30.9762 34.9574 30.9247 34.9832 30.886C35.009 30.8344 35.0348 30.7957 35.0606 30.7441C35.0864 30.6925 35.0864 30.6281 35.0993 30.5765L34.9961 30.5894ZM10.0954 7.02974L24.6026 16.1854L17.5102 20.17L2.52587 11.7623L10.0825 7.04263L10.0954 7.02974ZM17.5231 2.38745L32.5073 11.7494L26.3047 15.2311L11.7073 6.02391L17.5231 2.38745ZM1.72636 13.2453L16.672 21.6401V38.3781L1.72636 29.9833V13.2453ZM18.3741 21.6401L25.3763 17.707V26.8755C25.3763 27.3398 25.7502 27.7266 26.2274 27.7266C26.7045 27.7266 27.0784 27.3527 27.0784 26.8755V16.7528L33.3197 13.2453V29.9833L18.3741 38.3781V21.6401Z" fill="#333333"/>
</svg>
