<svg width="14" height="7" viewBox="0 0 14 7" fill="none" xmlns="http://www.w3.org/2000/svg">
<path d="M1.56506 3.97091C1.10083 4.17723 0.765555 4.43514 0.597916 4.58988C0.520545 4.66725 0.404489 4.66725 0.327117 4.58988C0.249746 4.51251 0.23685 4.38356 0.327117 4.30619C0.855823 3.7388 1.90034 2.62981 4.4407 2.51375C7.50977 2.3719 8.19322 4.64147 10.927 4.09987C10.927 4.09987 9.59881 4.20302 7.04555 2.42348C5.02099 1.005 2.68695 2.11399 2.64826 2.12689C2.66116 2.1011 3.8991 0.25708 6.33631 0.25708C9.03142 0.25708 10.2049 3.713 13.3255 3.30036C13.3255 3.30036 11.3526 6.82076 7.93532 6.82076C5.67865 6.82076 4.38912 5.27333 3.25434 4.22882C2.803 3.81617 2.17114 3.71301 1.61664 3.95802L1.56506 3.97091Z" fill="#4FC646"/>
</svg>
