<svg width="43" height="34" viewBox="0 0 43 34" fill="none" xmlns="http://www.w3.org/2000/svg">
<path d="M42.7567 7.20077C42.7567 2.84217 31.8215 0.495239 21.544 0.495239C11.2665 0.495239 0.331299 2.84217 0.331299 7.20077C0.331299 17.4267 5.14123 23.2167 10.5959 26.2729C10.5959 26.3631 10.5701 26.4534 10.5701 26.5437C10.5701 30.3091 15.393 33.2492 21.544 33.2492C27.695 33.2492 32.5179 30.2962 32.5179 26.5437C32.5179 26.4534 32.505 26.3631 32.4921 26.2729C37.9468 23.2167 42.7567 17.4267 42.7567 7.20077ZM21.544 1.9653C33.1755 1.9653 41.2866 4.72488 41.2866 7.20077C41.2866 8.46451 39.1589 9.80561 35.5354 10.8114C32.5952 9.019 27.5274 7.88422 21.544 7.88422C15.5606 7.88422 10.5057 9.019 7.55264 10.8114C3.92908 9.80561 1.80136 8.46451 1.80136 7.20077C1.80136 4.72488 9.91247 1.9653 21.544 1.9653ZM33.2787 11.353C30.0807 12.0107 26.0831 12.4362 21.544 12.4362C17.0049 12.4362 13.0073 12.0107 9.80931 11.353C12.5173 10.1925 16.618 9.36718 21.544 9.36718C26.47 9.36718 30.5707 10.1925 33.2787 11.353ZM21.544 31.7791C16.6954 31.7791 12.5689 29.6643 12.0918 27.0466C15.4574 28.6069 18.9134 29.2259 21.544 29.2259C24.1746 29.2259 27.6306 28.6069 30.9962 27.0466C30.5191 29.6643 26.3926 31.7791 21.544 31.7791ZM32.1568 24.8028C31.7184 25.0478 31.2799 25.2928 30.8544 25.4991C26.3152 27.6784 21.9438 27.7429 21.5569 27.7558C21.17 27.7558 16.7856 27.6784 12.2594 25.4991C11.821 25.2928 11.3825 25.0607 10.957 24.8028C6.72735 22.3785 2.69113 17.9425 1.9561 9.87009C2.96193 10.6567 4.4062 11.3273 6.14706 11.8946C6.70156 12.0752 7.28184 12.2428 7.88792 12.3976C11.7952 13.3905 16.747 13.9192 21.5698 13.9192C26.3926 13.9192 31.3315 13.3905 35.2517 12.3976C35.8577 12.2428 36.438 12.0752 36.9925 11.8946C38.7334 11.3401 40.1647 10.6567 41.1835 9.87009C40.4484 17.9425 36.4122 22.3785 32.1826 24.8028H32.1568Z" fill="#333333"/>
</svg>
