<svg width="50" height="40" viewBox="0 0 50 40" fill="none" xmlns="http://www.w3.org/2000/svg">
<path d="M49.5173 5.30761C49.5173 4.94655 49.2336 4.66285 48.8725 4.66285H32.8308C31.8379 1.70984 24.0878 0.123718 16.7504 0.123718C8.91013 0.123718 0.566895 1.94195 0.566895 5.30761V33.8706C0.566895 37.2363 8.91013 39.0545 16.7504 39.0545C23.9073 39.0545 31.451 37.5458 32.7277 34.7217H48.8725C49.2336 34.7217 49.5173 34.438 49.5173 34.0769C49.5173 33.9738 49.4915 33.8835 49.4528 33.8061C49.4915 33.7159 49.5173 33.6256 49.5173 33.5353V5.32051V5.30761ZM31.6316 33.8706C31.6316 35.4954 25.9706 37.7521 16.7504 37.7521C7.53033 37.7521 1.86932 35.4954 1.86932 33.8706V7.44823C4.51284 9.44699 10.767 10.5044 16.7504 10.5044C22.7338 10.5044 28.988 9.44699 31.6316 7.44823V33.8706ZM16.7504 9.18909C7.53033 9.18909 1.86932 6.93242 1.86932 5.30761C1.86932 3.68281 7.53033 1.42614 16.7504 1.42614C25.9706 1.42614 31.6316 3.68281 31.6316 5.30761C31.6316 6.93242 25.9706 9.18909 16.7504 9.18909ZM48.2278 33.4322H32.934V5.95238H48.2278V33.4322Z" fill="#333333"/>
</svg>
