<svg width="33" height="39" viewBox="0 0 33 39" fill="none" xmlns="http://www.w3.org/2000/svg">
<path d="M22.2746 0.257629V7.06633H9.93387V0.257629H0.46875V38.8789H32.5522V0.257629H22.2746ZM31.2626 37.5894H1.75828V1.54716H8.64434V8.35585H23.5642V1.54716H31.2626V37.5894Z" fill="#333333"/>
<path d="M23.0225 16.8925C23.0225 16.5315 22.7388 16.2478 22.3777 16.2478C22.0167 16.2478 21.733 16.5315 21.733 16.8925V17.447C20.2629 15.9254 18.1997 14.9711 15.9301 14.9711C11.4812 14.9711 7.85767 18.5947 7.85767 23.0436C7.85767 24.3976 8.19294 25.6742 8.78612 26.7832V29.1301C8.78612 29.4912 9.06982 29.7749 9.43088 29.7749C9.79195 29.7749 10.0756 29.4912 10.0756 29.1301V28.5885C11.5457 30.1488 13.6218 31.116 15.9301 31.116C20.379 31.116 24.0025 27.4924 24.0025 23.0436C24.0025 21.6509 23.6544 20.3485 23.0225 19.2008V16.8925ZM15.9301 29.8136C13.8024 29.8136 11.9197 28.8077 10.6817 27.2732H11.997C12.3581 27.2732 12.6418 26.9895 12.6418 26.6284C12.6418 26.2674 12.3581 25.9837 11.997 25.9837H9.85643C9.41799 25.0939 9.14719 24.101 9.14719 23.0307C9.14719 19.291 12.1905 16.2478 15.9301 16.2478C18.032 16.2478 19.8889 17.2278 21.1269 18.7365H19.8116C19.4505 18.7365 19.1668 19.0202 19.1668 19.3813C19.1668 19.7424 19.4505 20.0261 19.8116 20.0261H21.9651C22.4164 20.9416 22.7001 21.9475 22.7001 23.0307C22.7001 26.7703 19.6568 29.8136 15.9172 29.8136H15.9301Z" fill="#333333"/>
</svg>
